<svg width="2841" height="1024" viewBox="0 0 2841 1024" fill="none" xmlns="http://www.w3.org/2000/svg">
<path d="M0 115.38C0 51.6575 51.6575 0 115.38 0H490.366C713.396 0 894.197 180.801 894.197 403.831V908.62C894.197 972.343 842.54 1024 778.817 1024H115.38C51.6575 1024 0 972.342 0 908.62V115.38Z" fill="#2F89FF"/>
<path fill-rule="evenodd" clip-rule="evenodd" d="M584.114 129.803C584.114 82.0107 545.37 43.2676 497.578 43.2676H129.804C82.0117 43.2676 43.2686 82.0107 43.2686 129.803V894.197C43.2686 941.989 82.0117 980.732 129.804 980.732H764.395C812.187 980.732 850.931 941.989 850.931 894.197V403.831C850.931 356.039 812.187 317.296 764.395 317.296H670.649C622.857 317.296 584.114 278.553 584.114 230.761V129.803Z" fill="#EEF6FF"/>
<path fill-rule="evenodd" clip-rule="evenodd" d="M375.513 266.816C404.199 266.816 428.537 284.517 432.107 307.913V307.945C451.513 435.741 470.768 563.56 489.869 691.402C489.7 697.312 486.168 700.554 481.6 704.747C480.915 705.375 480.208 706.025 479.485 706.708H179.64C148.195 706.708 122.592 685.674 122.592 659.787V313.77C122.592 287.915 148.163 266.849 179.64 266.816H375.513ZM333.359 553.39C335.468 561.965 345.69 567.369 355.75 565.654V565.621C366.037 563.906 372.722 555.687 370.677 547.209L332.645 390.882C330.86 383.601 323.072 378.326 313.986 378.326H274.721C265.634 378.326 257.846 383.601 256.062 390.914L218.029 547.209C215.985 555.687 222.67 563.906 232.924 565.621C243.373 567.369 253.271 561.803 255.315 553.357L267.484 503.427H321.223L333.359 553.39ZM347.994 759.356L344.749 737.902H344.782H444.73L380.899 795.696C361.786 788.382 350.201 773.724 347.994 759.356ZM714.558 361.691H478.446L527.674 686.513C528.55 699.781 524.104 712.304 513.59 722.109L430.192 800.45H714.558C746.035 800.45 771.606 779.417 771.606 753.529V409.648C771.606 383.793 746.035 361.724 714.558 361.724V361.691ZM714.558 534.684H709.495C698.657 563.225 681.523 585.553 663.675 603.156C673.318 610.424 683.426 616.765 693.656 623.182C698.23 626.05 702.827 628.934 707.418 631.923C715.628 637.295 716.959 647.132 710.371 653.895C703.849 660.626 691.842 661.726 683.665 656.322C678.96 653.264 674.339 650.352 669.777 647.477L669.773 647.475C658.696 640.495 647.97 633.736 637.26 625.646C624.014 635.63 611.734 643.588 598.081 652.435C596.114 653.709 594.119 655.002 592.089 656.322C583.911 661.726 571.904 660.626 565.349 653.895C558.794 647.132 560.125 637.295 568.302 631.891C570.166 630.686 572.012 629.496 573.842 628.316L573.849 628.312L573.85 628.312C586.609 620.088 598.611 612.352 610.813 603.156C591.153 583.828 575.949 560.463 566.258 534.684H561.196C550.682 534.684 542.179 527.694 542.179 519.054C542.179 510.414 550.682 503.425 561.196 503.425H618.211V487.795C618.211 479.155 626.714 472.166 637.228 472.166C647.742 472.166 656.244 479.155 656.244 487.795V503.425H714.558C725.072 503.425 733.574 510.414 733.574 519.054C733.574 527.694 725.072 534.684 714.558 534.684ZM298.41 409.617H290.298L275.078 472.168H313.63L298.41 409.617ZM606.043 534.686C614.253 552.807 625.157 567.498 637.228 579.989C649.332 567.498 661.501 552.807 669.711 534.686H606.043Z" fill="#2F89FF"/>
<path d="M1176.53 213.24V310.563C1176.53 312.448 1177.61 313.659 1179.76 314.198C1189.99 315.544 1199.95 316.217 1209.65 316.217C1231.45 316.217 1248.01 311.506 1259.32 302.083C1270.89 292.391 1276.68 278.661 1276.68 260.892C1276.68 225.086 1254.34 207.183 1209.65 207.183C1199.95 207.183 1189.99 207.856 1179.76 209.202C1177.61 209.74 1176.53 211.086 1176.53 213.24ZM1143.42 462C1137.23 462 1131.84 459.712 1127.27 455.135C1122.96 450.558 1120.8 445.174 1120.8 438.982V192.241C1120.8 185.78 1122.96 179.991 1127.27 174.876C1131.57 169.761 1136.96 166.934 1143.42 166.396C1166.3 164.242 1188.38 163.165 1209.65 163.165C1250.03 163.165 1280.32 171.242 1300.51 187.395C1320.7 203.279 1330.8 226.432 1330.8 256.854C1330.8 290.506 1320.97 315.948 1301.32 333.178C1281.93 350.408 1253.13 359.023 1214.9 359.023C1206.01 359.023 1194.3 358.485 1179.76 357.408C1177.61 357.408 1176.53 358.485 1176.53 360.638V438.982C1176.53 445.174 1174.24 450.558 1169.67 455.135C1165.09 459.712 1159.71 462 1153.51 462H1143.42ZM1414.36 214.048V415.156C1414.36 417.04 1415.44 418.252 1417.59 418.79C1426.21 420.136 1434.28 420.809 1441.82 420.809C1473.32 420.809 1496.47 412.329 1511.28 395.368C1526.09 378.138 1533.49 349.87 1533.49 310.563C1533.49 275.295 1525.95 249.45 1510.88 233.028C1495.8 216.605 1472.78 208.394 1441.82 208.394C1434.28 208.394 1426.21 209.067 1417.59 210.413C1415.44 210.952 1414.36 212.163 1414.36 214.048ZM1381.25 463.211C1374.52 462.404 1369 459.577 1364.69 454.731C1360.38 449.616 1358.23 443.693 1358.23 436.962V192.241C1358.23 185.51 1360.38 179.722 1364.69 174.876C1369 169.761 1374.52 166.8 1381.25 165.992C1398.48 164.107 1417.73 163.165 1438.99 163.165C1486.92 163.165 1523.53 175.684 1548.84 200.721C1574.41 225.759 1587.2 262.373 1587.2 310.563C1587.2 362.254 1574.41 401.156 1548.84 427.271C1523.53 453.116 1486.92 466.038 1438.99 466.038C1417.73 466.038 1398.48 465.096 1381.25 463.211ZM1639.17 462C1632.98 462 1627.59 459.712 1623.02 455.135C1618.71 450.558 1616.55 445.174 1616.55 438.982V190.222C1616.55 184.03 1618.71 178.645 1623.02 174.068C1627.59 169.492 1632.98 167.203 1639.17 167.203H1772.43C1778.62 167.203 1784.01 169.492 1788.59 174.068C1793.16 178.645 1795.45 184.03 1795.45 190.222C1795.45 196.414 1793.16 201.798 1788.59 206.375C1784.01 210.682 1778.62 212.836 1772.43 212.836H1676.32C1674.17 212.836 1673.09 214.048 1673.09 216.471V287.141C1673.09 289.295 1674.17 290.372 1676.32 290.372H1765.57C1771.49 290.372 1776.61 292.526 1780.91 296.833C1785.22 300.871 1787.37 305.987 1787.37 312.179C1787.37 318.371 1785.22 323.621 1780.91 327.928C1776.61 331.966 1771.49 333.986 1765.57 333.986H1676.32C1674.17 333.986 1673.09 335.062 1673.09 337.216V438.982C1673.09 445.174 1670.8 450.558 1666.23 455.135C1661.65 459.712 1656.26 462 1650.07 462H1639.17ZM1860.04 462C1853.85 462 1848.46 459.712 1843.89 455.135C1839.31 450.558 1837.02 445.174 1837.02 438.982V190.222C1837.02 184.03 1839.31 178.645 1843.89 174.068C1848.46 169.492 1853.85 167.203 1860.04 167.203H1870.13C1877.13 167.203 1883.6 169.088 1889.52 172.857C1895.44 176.626 1899.75 181.607 1902.44 187.799L1973.11 340.447C1973.11 340.716 1973.25 340.851 1973.52 340.851C1973.78 340.851 1973.92 340.716 1973.92 340.447L2044.59 187.799C2047.28 181.607 2051.59 176.626 2057.51 172.857C2063.43 169.088 2069.9 167.203 2076.9 167.203H2088.61C2094.8 167.203 2100.18 169.492 2104.76 174.068C2109.34 178.645 2111.63 184.03 2111.63 190.222V438.982C2111.63 445.174 2109.34 450.558 2104.76 455.135C2100.18 459.712 2094.8 462 2088.61 462H2079.72C2073.53 462 2068.15 459.712 2063.57 455.135C2058.99 450.558 2056.7 445.174 2056.7 438.982V263.315C2056.7 263.046 2056.57 262.911 2056.3 262.911C2056.03 262.911 2055.9 263.046 2055.9 263.315L2007.44 367.1C2004.48 373.292 1999.9 378.407 1993.71 382.445C1987.78 386.214 1981.46 388.099 1974.73 388.099H1972.3C1965.57 388.099 1959.11 386.214 1952.92 382.445C1947 378.407 1942.55 373.292 1939.59 367.1L1891.13 263.315C1891.13 263.046 1891 262.911 1890.73 262.911C1890.46 262.911 1890.33 263.046 1890.33 263.315V438.982C1890.33 445.174 1888.04 450.558 1883.46 455.135C1878.88 459.712 1873.5 462 1867.31 462H1860.04ZM2254.13 361.042C2215.64 361.042 2196.39 372.888 2196.39 396.579C2196.39 405.194 2198.81 412.194 2203.65 417.579C2208.77 422.963 2215.23 425.655 2223.04 425.655C2238.38 425.655 2250.77 420.944 2260.19 411.521C2269.61 401.829 2274.33 388.637 2274.33 371.946V364.677C2274.33 362.254 2273.11 361.042 2270.69 361.042H2254.13ZM2208.5 466.038C2190.19 466.038 2174.98 460.115 2162.87 448.27C2151.02 436.155 2145.1 420.54 2145.1 401.425C2145.1 378.003 2153.98 359.831 2171.75 346.908C2189.79 333.986 2217.25 327.524 2254.13 327.524H2270.69C2273.11 327.524 2274.33 326.313 2274.33 323.89V320.659C2274.33 308.275 2271.36 299.66 2265.44 294.814C2259.52 289.699 2249.02 287.141 2233.94 287.141C2218.33 287.141 2199.21 289.968 2176.6 295.622C2171.75 296.968 2167.31 296.16 2163.27 293.199C2159.23 289.968 2157.21 285.795 2157.21 280.68C2157.21 274.488 2159.1 268.969 2162.87 264.123C2166.64 259.008 2171.48 255.912 2177.41 254.835C2197.87 250.258 2217.12 247.97 2235.15 247.97C2269.61 247.97 2293.71 254.162 2307.44 266.546C2321.17 278.93 2328.03 300.602 2328.03 331.563V438.982C2328.03 445.174 2325.75 450.558 2321.17 455.135C2316.86 459.712 2311.61 462 2305.42 462H2300.98C2294.52 462 2289 459.846 2284.42 455.539C2279.84 450.962 2277.42 445.443 2277.15 438.982V433.328C2277.15 433.059 2277.02 432.924 2276.75 432.924C2276.21 432.924 2275.94 433.059 2275.94 433.328C2259.52 455.135 2237.04 466.038 2208.5 466.038ZM2362.47 299.256C2357.09 299.256 2352.51 297.372 2348.74 293.602C2344.97 289.564 2343.09 284.853 2343.09 279.468C2343.09 274.084 2344.97 269.507 2348.74 265.738C2352.51 261.969 2357.09 260.085 2362.47 260.085H2381.85C2384.28 260.085 2385.49 258.873 2385.49 256.45V206.375C2385.49 200.183 2387.64 194.798 2391.95 190.222C2396.53 185.645 2401.91 183.357 2408.1 183.357H2416.18C2422.37 183.357 2427.76 185.645 2432.33 190.222C2436.91 194.798 2439.2 200.183 2439.2 206.375V256.45C2439.2 258.873 2440.41 260.085 2442.83 260.085H2488.87C2494.25 260.085 2498.83 261.969 2502.6 265.738C2506.64 269.507 2508.66 274.084 2508.66 279.468C2508.66 284.853 2506.64 289.564 2502.6 293.602C2498.83 297.372 2494.25 299.256 2488.87 299.256H2442.83C2440.41 299.256 2439.2 300.333 2439.2 302.487V384.061C2439.2 401.56 2441.08 412.867 2444.85 417.982C2448.62 423.098 2456.43 425.655 2468.27 425.655C2474.74 425.655 2479.58 425.386 2482.81 424.848C2488.2 424.309 2492.91 425.521 2496.95 428.482C2500.98 431.443 2503 435.482 2503 440.597C2503 446.52 2500.98 451.904 2496.95 456.75C2493.18 461.327 2488.47 463.885 2482.81 464.423C2470.97 465.5 2462.08 466.038 2456.16 466.038C2430.05 466.038 2411.74 460.519 2401.24 449.481C2390.74 438.174 2385.49 418.117 2385.49 389.31V302.487C2385.49 300.333 2384.28 299.256 2381.85 299.256H2362.47ZM2573.04 462C2566.85 462 2561.47 459.712 2556.89 455.135C2552.58 450.558 2550.43 445.174 2550.43 438.982V182.145C2550.43 175.953 2552.58 170.569 2556.89 165.992C2561.47 161.415 2566.85 159.127 2573.04 159.127H2581.12C2587.31 159.127 2592.7 161.415 2597.27 165.992C2601.85 170.569 2604.14 175.953 2604.14 182.145V275.834C2604.14 276.103 2604.27 276.238 2604.54 276.238C2604.81 276.238 2605.08 276.103 2605.35 275.834C2624.2 257.258 2644.93 247.97 2667.54 247.97C2692.04 247.97 2709.81 254.969 2720.85 268.969C2731.88 282.968 2737.4 306.929 2737.4 340.851V438.982C2737.4 445.174 2735.11 450.558 2730.54 455.135C2725.96 459.712 2720.58 462 2714.38 462H2707.92C2701.73 462 2696.35 459.712 2691.77 455.135C2687.19 450.558 2684.9 445.174 2684.9 438.982V348.927C2684.9 325.505 2682.35 310.025 2677.23 302.487C2672.39 294.949 2663.1 291.179 2649.37 291.179C2638.6 291.179 2628.37 296.025 2618.68 305.717C2608.98 315.409 2604.14 325.774 2604.14 336.812V438.982C2604.14 445.174 2601.85 450.558 2597.27 455.135C2592.7 459.712 2587.31 462 2581.12 462H2573.04ZM1133.73 618.048C1127.53 618.048 1122.15 615.894 1117.57 611.586C1113 607.01 1110.71 601.625 1110.71 595.433V594.222C1110.71 588.03 1113 582.645 1117.57 578.068C1122.15 573.492 1127.53 571.203 1133.73 571.203H1305.76C1311.95 571.203 1317.34 573.492 1321.91 578.068C1326.49 582.645 1328.78 588.03 1328.78 594.222V595.433C1328.78 601.625 1326.49 607.01 1321.91 611.586C1317.34 615.894 1311.95 618.048 1305.76 618.048H1251.65C1249.49 618.048 1248.41 619.259 1248.41 621.682V842.982C1248.41 849.174 1246.13 854.558 1241.55 859.135C1236.97 863.712 1231.59 866 1225.4 866H1214.09C1207.9 866 1202.51 863.712 1197.94 859.135C1193.36 854.558 1191.07 849.174 1191.07 842.982V621.682C1191.07 619.259 1189.99 618.048 1187.84 618.048H1133.73ZM1365.38 866C1359.19 866 1353.8 863.712 1349.22 859.135C1344.65 854.558 1342.36 849.174 1342.36 842.982V679.026C1342.36 672.834 1344.65 667.45 1349.22 662.873C1353.8 658.296 1359.19 656.008 1365.38 656.008H1373.45C1379.65 656.008 1385.03 658.296 1389.61 662.873C1394.18 667.45 1396.47 672.834 1396.47 679.026V695.987C1396.47 696.256 1396.61 696.391 1396.88 696.391C1397.41 696.391 1397.68 696.256 1397.68 695.987C1405.49 685.218 1415.72 676.469 1428.37 669.738C1441.03 662.738 1454.89 658.431 1469.97 656.816C1475.62 656.277 1480.47 658.162 1484.51 662.469C1488.55 666.507 1490.56 671.353 1490.56 677.007C1490.56 682.661 1488.55 687.507 1484.51 691.545C1480.47 695.583 1475.62 697.872 1469.97 698.41C1422.32 702.179 1398.49 726.409 1398.49 771.1V842.982C1398.49 849.174 1396.2 854.558 1391.63 859.135C1387.05 863.712 1381.67 866 1375.47 866H1365.38ZM1608.92 765.042C1570.42 765.042 1551.17 776.888 1551.17 800.579C1551.17 809.194 1553.59 816.194 1558.44 821.579C1563.56 826.963 1570.02 829.655 1577.82 829.655C1593.17 829.655 1605.55 824.944 1614.98 815.521C1624.4 805.829 1629.11 792.637 1629.11 775.946V768.677C1629.11 766.254 1627.9 765.042 1625.48 765.042H1608.92ZM1563.29 870.038C1544.98 870.038 1529.77 864.115 1517.65 852.27C1505.81 840.155 1499.88 824.54 1499.88 805.425C1499.88 782.003 1508.77 763.831 1526.54 750.908C1544.58 737.986 1572.04 731.524 1608.92 731.524H1625.48C1627.9 731.524 1629.11 730.313 1629.11 727.89V724.659C1629.11 712.275 1626.15 703.66 1620.23 698.814C1614.3 693.699 1603.8 691.141 1588.73 691.141C1573.11 691.141 1554 693.968 1531.38 699.622C1526.54 700.968 1522.1 700.16 1518.06 697.199C1514.02 693.968 1512 689.795 1512 684.68C1512 678.488 1513.88 672.969 1517.65 668.123C1521.42 663.008 1526.27 659.912 1532.19 658.835C1552.65 654.258 1571.9 651.97 1589.94 651.97C1624.4 651.97 1648.49 658.162 1662.22 670.546C1675.95 682.93 1682.82 704.602 1682.82 735.563V842.982C1682.82 849.174 1680.53 854.558 1675.95 859.135C1671.65 863.712 1666.4 866 1660.21 866H1655.76C1649.3 866 1643.78 863.846 1639.21 859.539C1634.63 854.962 1632.21 849.443 1631.94 842.982V837.328C1631.94 837.059 1631.8 836.924 1631.53 836.924C1631 836.924 1630.73 837.059 1630.73 837.328C1614.3 859.135 1591.82 870.038 1563.29 870.038ZM1743.21 866C1737.02 866 1731.64 863.712 1727.06 859.135C1722.48 854.558 1720.19 849.174 1720.19 842.982V679.026C1720.19 672.834 1722.48 667.45 1727.06 662.873C1731.64 658.296 1737.02 656.008 1743.21 656.008H1748.46C1754.92 656.008 1760.31 658.296 1764.61 662.873C1769.19 667.181 1771.61 672.565 1771.88 679.026V681.853C1771.88 682.122 1772.02 682.257 1772.29 682.257C1772.56 682.257 1772.83 682.122 1773.1 681.853C1791.4 661.931 1812.81 651.97 1837.3 651.97C1861.8 651.97 1879.57 658.969 1890.61 672.969C1901.92 686.699 1907.57 709.717 1907.57 742.024V842.982C1907.57 849.174 1905.28 854.558 1900.71 859.135C1896.13 863.712 1890.74 866 1884.55 866H1877.69C1871.5 866 1866.11 863.712 1861.53 859.135C1857.23 854.558 1855.07 849.174 1855.07 842.982V746.062C1855.07 725.871 1852.38 712.14 1847 704.871C1841.88 697.333 1832.59 693.564 1819.13 693.564C1808.09 693.564 1797.86 698.276 1788.44 707.698C1779.02 717.121 1774.31 727.217 1774.31 737.986V842.982C1774.31 849.174 1772.02 854.558 1767.44 859.135C1762.86 863.712 1757.48 866 1751.29 866H1743.21ZM2017.28 781.195C1989.02 775.003 1968.82 766.523 1956.71 755.754C1944.86 744.985 1938.94 730.986 1938.94 713.756C1938.94 694.372 1946.07 679.295 1960.34 668.527C1974.88 657.489 1996.28 651.97 2024.55 651.97C2042.32 651.97 2059.96 653.585 2077.45 656.816C2083.38 657.892 2088.09 660.854 2091.59 665.7C2095.36 670.277 2097.24 675.661 2097.24 681.853C2097.24 686.968 2095.22 691.141 2091.18 694.372C2087.15 697.333 2082.57 698.141 2077.45 696.795C2062.38 693.026 2046.49 691.141 2029.8 691.141C2005.57 691.141 1993.46 697.872 1993.46 711.333C1993.46 717.794 1995.75 723.178 2000.32 727.486C2004.9 731.793 2012.71 735.159 2023.74 737.582C2054.71 743.774 2075.84 752.12 2087.15 762.619C2098.72 773.119 2104.51 788.464 2104.51 808.656C2104.51 828.04 2097.24 843.116 2082.7 853.885C2068.17 864.654 2047.03 870.038 2019.3 870.038C2001.26 870.038 1982.82 867.885 1963.98 863.577C1958.06 862.231 1953.21 859.135 1949.44 854.289C1945.67 849.174 1943.79 843.385 1943.79 836.924C1943.79 831.809 1945.81 827.905 1949.84 825.213C1954.15 822.521 1958.73 821.848 1963.57 823.194C1981.07 828.04 1997.63 830.463 2013.25 830.463C2037.74 830.463 2049.99 823.194 2049.99 808.656C2049.99 801.656 2047.57 796.137 2042.72 792.099C2038.15 788.061 2029.67 784.426 2017.28 781.195ZM2172.99 866C2166.8 866 2161.42 863.712 2156.84 859.135C2152.26 854.558 2149.97 849.174 2149.97 842.982V586.145C2149.97 579.953 2152.26 574.569 2156.84 569.992C2161.42 565.415 2166.8 563.127 2172.99 563.127H2183.49C2189.68 563.127 2195.07 565.415 2199.64 569.992C2204.22 574.569 2206.51 579.953 2206.51 586.145V842.982C2206.51 849.174 2204.22 854.558 2199.64 859.135C2195.07 863.712 2189.68 866 2183.49 866H2172.99ZM2357.09 765.042C2318.6 765.042 2299.35 776.888 2299.35 800.579C2299.35 809.194 2301.77 816.194 2306.62 821.579C2311.73 826.963 2318.19 829.655 2326 829.655C2341.35 829.655 2353.73 824.944 2363.15 815.521C2372.57 805.829 2377.29 792.637 2377.29 775.946V768.677C2377.29 766.254 2376.07 765.042 2373.65 765.042H2357.09ZM2311.46 870.038C2293.15 870.038 2277.94 864.115 2265.83 852.27C2253.98 840.155 2248.06 824.54 2248.06 805.425C2248.06 782.003 2256.94 763.831 2274.71 750.908C2292.75 737.986 2320.21 731.524 2357.09 731.524H2373.65C2376.07 731.524 2377.29 730.313 2377.29 727.89V724.659C2377.29 712.275 2374.32 703.66 2368.4 698.814C2362.48 693.699 2351.98 691.141 2336.9 691.141C2321.29 691.141 2302.17 693.968 2279.56 699.622C2274.71 700.968 2270.27 700.16 2266.23 697.199C2262.19 693.968 2260.18 689.795 2260.18 684.68C2260.18 678.488 2262.06 672.969 2265.83 668.123C2269.6 663.008 2274.44 659.912 2280.37 658.835C2300.83 654.258 2320.08 651.97 2338.11 651.97C2372.57 651.97 2396.67 658.162 2410.4 670.546C2424.13 682.93 2431 704.602 2431 735.563V842.982C2431 849.174 2428.71 854.558 2424.13 859.135C2419.82 863.712 2414.57 866 2408.38 866H2403.94C2397.48 866 2391.96 863.846 2387.38 859.539C2382.81 854.962 2380.38 849.443 2380.11 842.982V837.328C2380.11 837.059 2379.98 836.924 2379.71 836.924C2379.17 836.924 2378.9 837.059 2378.9 837.328C2362.48 859.135 2340 870.038 2311.46 870.038ZM2465.43 703.256C2460.05 703.256 2455.47 701.372 2451.7 697.602C2447.93 693.564 2446.05 688.853 2446.05 683.468C2446.05 678.084 2447.93 673.507 2451.7 669.738C2455.47 665.969 2460.05 664.085 2465.43 664.085H2484.82C2487.24 664.085 2488.45 662.873 2488.45 660.45V610.375C2488.45 604.183 2490.6 598.798 2494.91 594.222C2499.49 589.645 2504.87 587.357 2511.06 587.357H2519.14C2525.33 587.357 2530.72 589.645 2535.29 594.222C2539.87 598.798 2542.16 604.183 2542.16 610.375V660.45C2542.16 662.873 2543.37 664.085 2545.79 664.085H2591.83C2597.22 664.085 2601.79 665.969 2605.56 669.738C2609.6 673.507 2611.62 678.084 2611.62 683.468C2611.62 688.853 2609.6 693.564 2605.56 697.602C2601.79 701.372 2597.22 703.256 2591.83 703.256H2545.79C2543.37 703.256 2542.16 704.333 2542.16 706.487V788.061C2542.16 805.56 2544.04 816.867 2547.81 821.982C2551.58 827.098 2559.39 829.655 2571.24 829.655C2577.7 829.655 2582.54 829.386 2585.77 828.848C2591.16 828.309 2595.87 829.521 2599.91 832.482C2603.95 835.443 2605.97 839.482 2605.97 844.597C2605.97 850.52 2603.95 855.904 2599.91 860.75C2596.14 865.327 2591.43 867.885 2585.77 868.423C2573.93 869.5 2565.04 870.038 2559.12 870.038C2533.01 870.038 2514.7 864.519 2504.2 853.481C2493.7 842.174 2488.45 822.117 2488.45 793.31V706.487C2488.45 704.333 2487.24 703.256 2484.82 703.256H2465.43ZM2733.04 689.526C2719.31 689.526 2708.67 693.43 2701.14 701.237C2693.87 708.775 2689.29 721.025 2687.41 737.986C2687.41 740.139 2688.48 741.216 2690.64 741.216H2769.79C2771.94 741.216 2773.02 740.139 2773.02 737.986C2771.94 705.679 2758.62 689.526 2733.04 689.526ZM2743.14 870.038C2707.87 870.038 2680.68 860.885 2661.56 842.578C2642.72 824.002 2633.29 796.81 2633.29 761.004C2633.29 725.467 2641.77 698.41 2658.73 679.834C2675.7 661.258 2700.19 651.97 2732.23 651.97C2792 651.97 2822.69 685.891 2824.31 753.735C2824.57 760.196 2822.29 765.581 2817.44 769.888C2812.59 774.196 2806.94 776.35 2800.48 776.35H2690.23C2687.81 776.35 2686.87 777.561 2687.41 779.984C2689.29 798.022 2695.21 811.214 2705.18 819.559C2715.41 827.636 2730.21 831.674 2749.6 831.674C2761.71 831.674 2775.17 829.655 2789.98 825.617C2794.83 824.271 2799.27 825.078 2803.31 828.04C2807.61 831.001 2809.77 835.04 2809.77 840.155C2809.77 846.347 2807.88 851.866 2804.11 856.712C2800.61 861.289 2795.9 864.115 2789.98 865.192C2774.9 868.423 2759.29 870.038 2743.14 870.038Z" fill="#2F89FF"/>
</svg>
