<svg width="1024" height="1173" viewBox="0 0 1024 1173" fill="none" xmlns="http://www.w3.org/2000/svg">
<path d="M0.000976562 132.129C0.000976562 59.1563 59.1572 0 132.13 0H561.549C816.954 0 1024 207.047 1024 462.452V1040.52C1024 1113.49 964.845 1172.65 891.872 1172.65H132.13C59.1572 1172.65 0.000976562 1113.49 0.000976562 1040.52V132.129Z" fill="#2F89FF"/>
<path fill-rule="evenodd" clip-rule="evenodd" d="M668.905 148.645C668.905 93.915 624.538 49.5479 569.809 49.5479H148.647C93.9169 49.5479 49.5498 93.9151 49.5498 148.645V1024C49.5498 1078.73 93.9171 1123.1 148.647 1123.1H875.356C930.086 1123.1 974.453 1078.73 974.453 1024V462.451C974.453 407.722 930.086 363.354 875.356 363.354H768.002C713.272 363.354 668.905 318.987 668.905 264.258V148.645Z" fill="#EEF6FF"/>
<path fill-rule="evenodd" clip-rule="evenodd" d="M430.024 305.548C462.874 305.548 490.745 325.818 494.833 352.61V352.647C517.057 498.994 539.106 645.367 560.98 791.767C560.786 798.534 556.742 802.247 551.511 807.049C550.727 807.768 549.917 808.512 549.088 809.294H205.718C169.709 809.294 140.389 785.208 140.389 755.562V359.317C140.389 329.709 169.672 305.585 205.718 305.548H430.024ZM381.751 633.72C384.167 643.54 395.873 649.729 407.393 647.765V647.728C419.173 645.764 426.828 636.351 424.487 626.643L380.934 447.623C378.89 439.285 369.971 433.245 359.566 433.245H314.601C304.196 433.245 295.277 439.285 293.233 447.66L249.68 626.643C247.339 636.351 254.994 645.764 266.737 647.728C278.703 649.729 290.037 643.355 292.378 633.683L306.314 576.505H367.853L381.751 633.72ZM398.511 869.585L394.795 845.017H394.832H509.289L436.193 911.2C414.305 902.825 401.038 886.038 398.511 869.585ZM818.285 414.195H547.899L604.273 786.169C605.276 801.362 600.185 815.703 588.145 826.931L492.641 916.645H818.285C854.331 916.645 883.615 892.558 883.615 862.913V469.113C883.615 439.505 854.331 414.232 818.285 414.232V414.195ZM818.285 612.299H812.488C800.076 644.983 780.455 670.552 760.016 690.711C771.059 699.034 782.634 706.295 794.35 713.644C799.587 716.929 804.852 720.231 810.109 723.654C819.511 729.806 821.035 741.071 813.491 748.816C806.022 756.523 792.272 757.783 782.907 751.595C777.52 748.093 772.228 744.758 767.004 741.466L766.999 741.463C754.314 733.47 742.031 725.73 729.767 716.465C714.597 727.899 700.535 737.012 684.9 747.143C682.648 748.603 680.364 750.083 678.038 751.595C668.674 757.783 654.924 756.523 647.417 748.816C639.911 741.071 641.434 729.806 650.799 723.617C652.934 722.237 655.047 720.874 657.143 719.524L657.151 719.518L657.152 719.518C671.763 710.101 685.508 701.242 699.48 690.711C676.966 668.577 659.556 641.82 648.458 612.299H642.661C630.621 612.299 620.884 604.295 620.884 594.401C620.884 584.507 630.621 576.503 642.661 576.503H707.953V558.604C707.953 548.71 717.689 540.706 729.73 540.706C741.77 540.706 751.506 548.71 751.506 558.604V576.503H818.285C830.325 576.503 840.061 584.507 840.061 594.401C840.061 604.295 830.325 612.299 818.285 612.299ZM341.729 469.078H332.439L315.01 540.708H359.158L341.729 469.078ZM694.018 612.301C703.42 633.053 715.906 649.877 729.73 664.18C743.591 649.877 757.527 633.053 766.929 612.301H694.018Z" fill="#2F89FF"/>
</svg>
